HIERARCHY
ROOT Hips
{
	OFFSET -8.665500 -1.496397 44.816700
	CHANNELS 6 Xposition Yposition Zposition Zrotation Xrotation Yrotation
	JOINT Chest
	{
		OFFSET -0.698600 0.806100 5.350899
		CHANNELS 6 Xposition Yposition Zposition Zrotation Xrotation Yrotation
		JOINT Chest2
		{
			OFFSET 0.000000 0.000000 4.409100
			CHANNELS 6 Xposition Yposition Zposition Zrotation Xrotation Yrotation
			JOINT Neck
			{
				OFFSET 0.000000 0.000001 10.248299
				CHANNELS 6 Xposition Yposition Zposition Zrotation Xrotation Yrotation
				JOINT Head
				{
					OFFSET 0.000000 0.000000 2.173897
					CHANNELS 6 Xposition Yposition Zposition Zrotation Xrotation Yrotation
					End Site
					{
						OFFSET 0.000000 0.000001 9.966400
					}
				}
			}
			JOINT LeftCollar
			{
				OFFSET 2.100600 -0.520900 6.016098
				CHANNELS 6 Xposition Yposition Zposition Zrotation Xrotation Yrotation
				JOINT LeftShoulder
				{
					OFFSET 5.536700 0.000000 0.000000
					CHANNELS 6 Xposition Yposition Zposition Zrotation Xrotation Yrotation
					JOINT LeftElbow
					{
						OFFSET 0.000000 -0.000001 -12.362099
						CHANNELS 6 Xposition Yposition Zposition Zrotation Xrotation Yrotation
						JOINT LeftWrist
						{
							OFFSET 0.000000 -0.000001 -10.273201
							CHANNELS 6 Xposition Yposition Zposition Zrotation Xrotation Yrotation
							End Site
							{
								OFFSET 0.000000 -0.000000 -2.173901
							}
						}
					}
				}
			}
			JOINT RightCollar
			{
				OFFSET -2.899500 -1.655900 6.981701
				CHANNELS 6 Xposition Yposition Zposition Zrotation Xrotation Yrotation
				JOINT RightShoulder
				{
					OFFSET -4.387501 0.000000 0.000000
					CHANNELS 6 Xposition Yposition Zposition Zrotation Xrotation Yrotation
					JOINT RightElbow
					{
						OFFSET 0.000000 -0.000001 -10.858101
						CHANNELS 6 Xposition Yposition Zposition Zrotation Xrotation Yrotation
						JOINT RightWrist
						{
							OFFSET 0.000000 -0.000001 -12.079601
							CHANNELS 6 Xposition Yposition Zposition Zrotation Xrotation Yrotation
							End Site
							{
								OFFSET 0.000000 0.000000 -2.173901
							}
						}
					}
				}
			}
		}
	}
	JOINT LeftHip
	{
		OFFSET 2.190800 0.073900 -2.522499
		CHANNELS 6 Xposition Yposition Zposition Zrotation Xrotation Yrotation
		JOINT LeftKnee
		{
			OFFSET 0.000000 -0.000002 -20.305000
			CHANNELS 6 Xposition Yposition Zposition Zrotation Xrotation Yrotation
			JOINT LeftAnkle
			{
				OFFSET 0.000000 -0.000001 -16.771700
				CHANNELS 6 Xposition Yposition Zposition Zrotation Xrotation Yrotation
				End Site
				{
					OFFSET 0.000000 -8.738000 0.000001
				}
			}
		}
	}
	JOINT RightHip
	{
		OFFSET -2.029500 0.054300 -2.705200
		CHANNELS 6 Xposition Yposition Zposition Zrotation Xrotation Yrotation
		JOINT RightKnee
		{
			OFFSET 0.000000 -0.000002 -20.030399
			CHANNELS 6 Xposition Yposition Zposition Zrotation Xrotation Yrotation
			JOINT RightAnkle
			{
				OFFSET 0.000000 -0.000001 -17.032700
				CHANNELS 6 Xposition Yposition Zposition Zrotation Xrotation Yrotation
				End Site
				{
					OFFSET 0.000000 -8.823600 0.000001
				}
			}
		}
	}
}
MOTION
Frames: 9
Frame Time: 0.041667
-25.229401 1.405902 44.369999 3061.186967 -16.370369 -2.217556 -0.698600 0.806102 5.350895 -0.806366 -11.185088 4.886347 0.000006 0.000002 4.409100 9.074703 0.470621 0.827922 0.000002 0.000001 10.248296 77.688846 -18.744375 -17.936212 -0.000002 0.000004 2.173898 -42.300550 -3.608218 18.448635 2.100602 -0.520901 6.016104 -1.625205 3.605887 -0.893713 5.536695 0.000001 0.000006 -186.538217 116.244765 86.746968 -0.000002 0.000005 -12.362096 -2119.910183 1.292223 -6.226512 -0.000004 0.000001 -10.273211 1427.349328 167.930036 -225.984540 -2.899499 -1.655900 6.981701 -6.918118 -8.877707 31.804858 -4.387498 -0.000002 0.000005 -1104.868011 -492.046719 36.556347 -0.000002 -0.000002 -10.858108 160.040048 190.901615 172.437019 0.000003 -0.000001 -12.079589 -170.196498 -194.077243 190.037965 2.190799 0.073901 -2.522506 -880.611317 -167.550578 -194.466127 -0.000004 -0.000006 -20.305008 -439.723207 46.487524 51.685308 0.000003 -0.000001 -16.771700 1486.889016 12.685531 32.651586 -2.029502 0.054301 -2.705204 -362.441447 -1.708612 14.130032 0.000001 -0.000001 -20.030401 370.821407 52.304390 -7.443071 -0.000001 -0.000001 -17.032698 -15.495980 11.102566 -4.195845
-25.064404 1.629802 44.166096 3069.472151 -17.920331 0.116540 -0.698599 0.806101 5.350894 -8.772203 -9.416544 5.723257 0.000002 -0.000000 4.409110 15.195427 0.427768 1.204599 -0.000001 0.000001 10.248298 87.704246 -15.877941 -15.902719 -0.000001 -0.000004 2.173894 -40.803130 -2.143968 19.621327 2.100599 -0.520901 6.016102 -2.124390 3.520760 0.813575 5.536696 0.000002 -0.000001 -181.551797 107.156434 80.190779 -0.000004 -0.000002 -12.362092 -2110.240383 -0.180007 -8.153876 -0.000004 0.000000 -10.273203 1425.752375 170.109850 -226.993865 -2.899506 -1.655898 6.981696 -6.731240 -7.276007 32.160267 -4.387502 -0.000001 0.000007 -1105.626763 -493.793608 35.756457 -0.000004 0.000000 -10.858109 157.212950 193.554433 168.619776 0.000002 0.000001 -12.079597 -165.209845 -193.458961 190.896028 2.190804 0.073901 -2.522509 -867.695430 -160.443725 -191.624837 -0.000002 -0.000008 -20.305004 -461.553694 44.883608 58.210799 0.000002 0.000004 -16.771702 1486.417678 10.518060 30.236523 -2.029500 0.054302 -2.705213 -362.419072 -0.798162 10.297092 0.000004 -0.000000 -20.030403 375.835886 55.843227 -10.720026 0.000003 -0.000002 -17.032698 -17.030718 8.425195 -4.390567
-24.921700 1.902701 43.895802 3077.711872 -19.210742 2.322669 -0.698603 0.806101 5.350899 -16.511649 -7.795512 7.151675 0.000001 -0.000000 4.409101 21.307352 0.373596 1.560104 0.000003 -0.000001 10.248301 95.376345 -12.629019 -15.372242 -0.000001 -0.000001 2.173894 -39.941095 -0.690329 20.518090 2.100606 -0.520900 6.016103 -2.462680 3.318267 2.275513 5.536687 -0.000006 0.000001 -230.356053 81.762706 128.494778 -0.000001 -0.000000 -12.362095 -2087.540332 -3.995640 -8.645351 -0.000003 -0.000000 -10.273200 1424.633535 173.066912 -226.574805 -2.899499 -1.655901 6.981706 -5.558828 -7.943158 33.263028 -4.387500 0.000003 0.000004 -1107.608283 -492.182776 33.303845 -0.000001 0.000001 -10.858109 154.778357 195.916736 164.981771 0.000000 0.000000 -12.079600 -160.990332 -192.791775 189.984307 2.190800 0.073900 -2.522510 -853.881235 -154.358122 -185.972295 -0.000005 -0.000011 -20.305006 -486.686113 36.021250 66.104763 -0.000000 0.000004 -16.771706 1491.462073 7.937343 31.556324 -2.029503 0.054300 -2.705202 -365.417962 -0.928537 7.030925 0.000004 -0.000000 -20.030401 381.554612 59.428042 -13.322355 -0.000001 -0.000002 -17.032703 -17.899534 6.493892 -4.232392
-24.821404 2.217200 43.556095 3085.373049 -19.635213 4.153873 -0.698595 0.806102 5.350893 4.383534 -1.042651 13.036544 0.000002 -0.000000 4.409099 -1.324005 -0.862317 0.029679 -0.000002 0.000001 10.248298 99.481261 -9.418721 -15.884317 -0.000001 0.000000 2.173897 -38.152562 1.079677 20.195157 2.100600 -0.520900 6.016102 -3.058063 3.196975 3.514752 5.536696 -0.000003 -0.000003 -196.968913 20.580195 100.432816 -0.000002 0.000002 -12.362100 -2025.348673 -9.199576 -3.725484 -0.000006 -0.000000 -10.273211 1424.061766 177.124058 -223.403576 -2.899499 -1.655899 6.981699 -5.100177 -7.699040 34.017856 -4.387504 0.000006 -0.000004 -1110.420682 -490.632159 30.028350 0.000003 -0.000004 -10.858106 151.202398 197.848246 161.391073 0.000005 -0.000001 -12.079598 -158.523145 -192.507502 191.120482 2.190802 0.073901 -2.522502 -842.861627 -150.555906 -179.319541 -0.000008 -0.000009 -20.305008 -507.809101 20.080732 70.981054 0.000000 0.000003 -16.771702 1502.240221 5.304807 37.180985 -2.029497 0.054301 -2.705207 -368.100997 -1.667003 4.573703 -0.000000 -0.000005 -20.030399 390.001916 62.453132 -19.230492 0.000000 -0.000001 -17.032696 -20.143459 4.922063 -4.577834
-24.768700 2.563101 43.145096 3092.506827 -19.546746 5.922590 -0.698597 0.806102 5.350896 2.982292 0.944429 14.679828 0.000000 -0.000004 4.409101 -1.350016 -1.120010 0.016814 0.000004 0.000001 10.248298 101.602431 -6.568717 -16.700236 0.000002 0.000002 2.173909 -37.099091 2.264235 20.240755 2.100603 -0.520901 6.016103 -3.258651 2.913491 4.148865 5.536693 0.000001 0.000001 -186.655109 -38.525422 107.358546 -0.000003 -0.000000 -12.362101 -1965.537198 -8.725435 2.127322 -0.000006 0.000001 -10.273206 1424.183289 178.513059 -219.188612 -2.899498 -1.655899 6.981695 -3.884018 -6.464865 34.840126 -4.387496 -0.000003 -0.000001 -1114.305365 -489.433051 26.837036 -0.000002 -0.000001 -10.858103 144.467653 198.115033 156.909417 0.000001 -0.000004 -12.079601 -155.858920 -192.755697 191.704818 2.190800 0.073900 -2.522507 -833.627812 -148.200051 -172.427183 -0.000004 -0.000009 -20.305008 -525.112866 1.237422 72.143750 0.000001 0.000006 -16.771702 1515.269271 3.113997 44.329451 -2.029497 0.054300 -2.705199 -370.860147 -2.707048 2.505198 0.000004 -0.000000 -20.030399 401.277138 64.644865 -28.315070 0.000002 -0.000002 -17.032700 -23.378979 3.986075 -4.891405
-24.759197 2.936800 42.644096 3099.022718 -18.895189 7.415160 -0.698602 0.806099 5.350899 1.763750 2.403801 16.151499 0.000001 -0.000005 4.409099 -1.347606 -1.378600 -0.016126 0.000002 0.000003 10.248298 102.367617 -4.154457 -17.372424 0.000000 -0.000000 2.173897 -36.039869 3.087700 19.767512 2.100603 -0.520898 6.016101 -3.146025 2.330555 4.680616 5.536695 0.000003 -0.000003 -172.046031 -62.419999 123.729997 -0.000008 -0.000005 -12.362095 -1940.837267 -6.618037 4.377418 -0.000003 0.000002 -10.273201 1425.789094 178.859473 -217.109843 -2.899494 -1.655898 6.981702 -2.609446 -5.697868 35.545633 -4.387503 0.000003 0.000005 -1118.860063 -487.771512 22.670359 0.000005 -0.000004 -10.858110 144.118904 200.456927 154.487445 0.000005 -0.000005 -12.079590 -159.184198 -192.289455 190.400512 2.190800 0.073902 -2.522501 -826.337104 -146.817621 -165.655897 -0.000005 -0.000004 -20.305006 -538.205683 -14.980825 70.906680 -0.000002 0.000011 -16.771704 1526.085449 1.861762 49.748359 -2.029500 0.054299 -2.705204 -373.290739 -4.110908 0.891588 -0.000000 0.000000 -20.030399 410.619034 66.899804 -36.788833 0.000001 -0.000001 -17.032700 -25.294419 3.471155 -4.865052
-24.781296 3.321102 42.054497 3104.854279 -17.458507 8.538665 -0.698601 0.806099 5.350900 0.931460 2.917853 17.653503 0.000001 -0.000003 4.409104 -1.310647 -1.652972 0.080169 -0.000001 -0.000000 10.248302 101.244762 -2.437677 -17.685573 0.000003 -0.000001 2.173894 -34.794715 3.767242 19.265961 2.100600 -0.520901 6.016105 -3.393866 2.320024 5.239476 5.536694 0.000002 -0.000003 -151.136746 -70.885909 147.114119 -0.000003 -0.000004 -12.362102 -1929.901096 -5.076013 4.942846 -0.000008 -0.000000 -10.273198 1427.251301 178.032992 -214.877669 -2.899507 -1.655901 6.981709 -2.765269 -4.571035 35.051407 -4.387501 0.000003 -0.000002 -1122.275595 -487.386726 18.564954 -0.000002 -0.000004 -10.858105 143.537914 202.711900 151.760615 -0.000001 -0.000003 -12.079597 -162.851080 -191.870778 190.907175 2.190800 0.073899 -2.522507 -820.901968 -146.111256 -158.804740 -0.000001 -0.000001 -20.305010 -545.919207 -24.212846 70.171123 -0.000003 0.000004 -16.771708 1530.961440 1.283582 51.540741 -2.029501 0.054299 -2.705205 -375.636936 -6.086783 -0.327320 -0.000002 0.000000 -20.030397 423.865503 67.939885 -49.292799 -0.000001 -0.000003 -17.032700 -27.415590 2.874847 -6.015844
-24.844097 3.711901 41.383198 3109.954518 -15.385428 9.621794 -0.698600 0.806098 5.350902 0.126025 2.520630 18.634660 -0.000001 -0.000001 4.409104 -1.019513 -1.745489 -0.078243 -0.000001 0.000003 10.248301 98.969755 -0.745902 -17.408774 -0.000003 0.000001 2.173897 -32.901096 4.332656 18.144864 2.100601 -0.520897 6.016102 -3.150118 2.202850 5.576178 5.536693 -0.000000 -0.000001 -122.886264 -73.707638 178.179514 -0.000001 -0.000002 -12.362087 -1921.436470 -3.793087 5.098745 -0.000002 0.000001 -10.273194 1428.464779 177.923682 -213.883125 -2.899496 -1.655900 6.981705 -2.602879 -3.357093 35.136009 -4.387502 -0.000000 -0.000000 -1125.996573 -486.963965 14.688600 0.000000 -0.000003 -10.858096 142.173775 204.572963 148.621474 -0.000000 -0.000003 -12.079610 -164.695013 -191.177855 190.448296 2.190799 0.073899 -2.522502 -817.133998 -145.492414 -152.153337 -0.000010 -0.000000 -20.305006 -549.382168 -28.833080 70.937443 -0.000002 0.000004 -16.771704 1531.981706 0.863190 51.411510 -2.029499 0.054295 -2.705200 -377.512096 -8.344359 -1.615672 0.000002 0.000000 -20.030397 437.200218 67.572127 -62.622043 0.000000 -0.000001 -17.032701 -29.653563 2.175198 -6.955786
-24.956001 4.102699 40.633396 3114.570633 -13.268184 10.763313 -0.698597 0.806098 5.350892 -0.374957 2.139616 19.017774 0.000003 0.000002 4.409110 -0.973622 -1.844125 -0.090812 -0.000000 0.000002 10.248297 97.064535 0.248437 -17.095760 0.000000 0.000003 2.173900 -31.557916 4.397654 17.357573 2.100601 -0.520900 6.016086 -4.072730 1.880318 5.999613 5.536696 0.000001 -0.000003 -101.650202 -72.093029 201.091984 -0.000004 0.000006 -12.362093 -1915.855385 -3.012754 5.178493 -0.000006 0.000000 -10.273199 1428.334951 177.868740 -212.788232 -2.899499 -1.655900 6.981696 -2.579084 -2.959166 34.848243 -4.387505 0.000010 0.000003 -1128.789738 -486.733651 10.828724 0.000001 -0.000004 -10.858102 141.042505 206.365546 144.917749 0.000005 -0.000003 -12.079611 -164.610305 -190.736639 190.447599 2.190804 0.073897 -2.522506 -814.791516 -144.785845 -146.062229 -0.000005 0.000002 -20.305006 -550.273917 -30.731593 73.017509 -0.000001 0.000000 -16.771704 1530.630968 0.706327 50.558860 -2.029499 0.054297 -2.705211 -378.654104 -10.071107 -2.715174 -0.000001 -0.000003 -20.030396 446.659893 66.295585 -73.146080 0.000001 -0.000002 -17.032698 -31.436133 1.622050 -7.459432
